<?xml version="1.0" encoding="UTF-8" standalone="no"?>
<svg width="1024px" height="1024px" viewBox="0 0 1024 1024" version="1.1" xmlns="http://www.w3.org/2000/svg" xmlns:xlink="http://www.w3.org/1999/xlink" xmlns:sketch="http://www.bohemiancoding.com/sketch/ns">
    <!-- Generator: Sketch 3.2.2 (9983) - http://www.bohemiancoding.com/sketch -->
    <title>iTunesArtwork@2x</title>
    <desc>Created with Sketch.</desc>
    <defs>
        <linearGradient x1="100%" y1="100%" x2="3.35138012%" y2="3.80986614%" id="linearGradient-1">
            <stop stop-color="#BD4EC8" stop-opacity="0.847826087" offset="0%"></stop>
            <stop stop-color="#201C78" offset="100%"></stop>
        </linearGradient>
        <filter x="-50%" y="-50%" width="200%" height="200%" filterUnits="objectBoundingBox" id="filter-2">
            <feOffset dx="0" dy="0" in="SourceAlpha" result="shadowOffsetOuter1"></feOffset>
            <feGaussianBlur stdDeviation="5" in="shadowOffsetOuter1" result="shadowBlurOuter1"></feGaussianBlur>
            <feColorMatrix values="0 0 0 0 0   0 0 0 0 0   0 0 0 0 0  0 0 0 0.35 0" in="shadowBlurOuter1" type="matrix" result="shadowMatrixOuter1"></feColorMatrix>
            <feOffset dx="0" dy="20" in="SourceAlpha" result="shadowOffsetOuter2"></feOffset>
            <feGaussianBlur stdDeviation="20" in="shadowOffsetOuter2" result="shadowBlurOuter2"></feGaussianBlur>
            <feColorMatrix values="0 0 0 0 0   0 0 0 0 0   0 0 0 0 0  0 0 0 0.35 0" in="shadowBlurOuter2" type="matrix" result="shadowMatrixOuter2"></feColorMatrix>
            <feOffset dx="0" dy="2" in="SourceAlpha" result="shadowOffsetOuter3"></feOffset>
            <feGaussianBlur stdDeviation="2" in="shadowOffsetOuter3" result="shadowBlurOuter3"></feGaussianBlur>
            <feColorMatrix values="0 0 0 0 0   0 0 0 0 0   0 0 0 0 0  0 0 0 0.35 0" in="shadowBlurOuter3" type="matrix" result="shadowMatrixOuter3"></feColorMatrix>
            <feMerge>
                <feMergeNode in="shadowMatrixOuter1"></feMergeNode>
                <feMergeNode in="shadowMatrixOuter2"></feMergeNode>
                <feMergeNode in="shadowMatrixOuter3"></feMergeNode>
                <feMergeNode in="SourceGraphic"></feMergeNode>
            </feMerge>
        </filter>
        <filter x="-50%" y="-50%" width="200%" height="200%" filterUnits="objectBoundingBox" id="filter-3">
            <feOffset dx="0" dy="0" in="SourceAlpha" result="shadowOffsetOuter1"></feOffset>
            <feGaussianBlur stdDeviation="5" in="shadowOffsetOuter1" result="shadowBlurOuter1"></feGaussianBlur>
            <feColorMatrix values="0 0 0 0 0   0 0 0 0 0   0 0 0 0 0  0 0 0 0.35 0" in="shadowBlurOuter1" type="matrix" result="shadowMatrixOuter1"></feColorMatrix>
            <feOffset dx="0" dy="20" in="SourceAlpha" result="shadowOffsetOuter2"></feOffset>
            <feGaussianBlur stdDeviation="20" in="shadowOffsetOuter2" result="shadowBlurOuter2"></feGaussianBlur>
            <feColorMatrix values="0 0 0 0 0   0 0 0 0 0   0 0 0 0 0  0 0 0 0.35 0" in="shadowBlurOuter2" type="matrix" result="shadowMatrixOuter2"></feColorMatrix>
            <feOffset dx="0" dy="2" in="SourceAlpha" result="shadowOffsetOuter3"></feOffset>
            <feGaussianBlur stdDeviation="2" in="shadowOffsetOuter3" result="shadowBlurOuter3"></feGaussianBlur>
            <feColorMatrix values="0 0 0 0 0   0 0 0 0 0   0 0 0 0 0  0 0 0 0.35 0" in="shadowBlurOuter3" type="matrix" result="shadowMatrixOuter3"></feColorMatrix>
            <feMerge>
                <feMergeNode in="shadowMatrixOuter1"></feMergeNode>
                <feMergeNode in="shadowMatrixOuter2"></feMergeNode>
                <feMergeNode in="shadowMatrixOuter3"></feMergeNode>
                <feMergeNode in="SourceGraphic"></feMergeNode>
            </feMerge>
        </filter>
    </defs>
    <g id="Page-1" stroke="none" stroke-width="1" fill="none" fill-rule="evenodd" sketch:type="MSPage">
        <g id="iTunesArtwork@2x" sketch:type="MSArtboardGroup">
            <path d="M357.009067,0 L666.990933,0 C769.792,0 821.179733,0 876.5184,17.4933333 C936.9344,39.4837333 984.516267,87.0656 1006.50667,147.4816 C1024,202.811733 1024,254.216533 1024,357.009067 L1024,666.990933 C1024,769.792 1024,821.179733 1006.50667,876.5184 C984.516267,936.9344 936.9344,984.516267 876.5184,1006.49813 C821.179733,1024 769.792,1024 666.990933,1024 L357.009067,1024 C254.208,1024 202.811733,1024 147.4816,1006.49813 C87.0656,984.516267 39.4837333,936.9344 17.4933333,876.5184 C0,821.179733 0,769.792 0,666.990933 L0,357.009067 C0,254.216533 0,202.811733 17.4933333,147.4816 C39.4837333,87.0656 87.0656,39.4837333 147.4816,17.4933333 C202.811733,0 254.208,0 357.009067,0 L357.009067,0" id="Icon-Shape" fill="url(#linearGradient-1)" sketch:type="MSShapeGroup"></path>
            <g id="baby-symbol" sketch:type="MSLayerGroup" transform="translate(251.000000, 96.000000)" fill-opacity="0.782608696" fill="#FFFFFF">
                <path d="M214.007805,787.410909 C209.53561,785.921455 205.063415,784.432 202.081951,781.453091 C194.628293,776.984727 84.3141463,662.296727 79.8419512,653.36 C70.897561,641.444364 69.4068293,632.507636 69.4068293,616.123636 C69.4068293,590.802909 69.4068293,589.313455 118.600976,541.650909 L158.850732,499.946182 L203.572683,543.140364 C227.42439,568.461091 248.294634,587.824 248.294634,589.313455 C248.294634,590.802909 233.387317,605.697455 215.498537,622.081455 L184.193171,653.36 L219.970732,690.596364 C257.239024,727.832727 261.71122,733.790545 263.201951,745.706182 C266.183415,772.516364 239.350244,796.347636 214.007805,787.410909 L214.007805,787.410909 Z M318.359024,788.900364 C300.470244,782.942545 290.035122,768.048 290.035122,750.174545 C290.035122,733.790545 293.016585,730.811636 333.266341,689.106909 L369.043902,653.36 L337.738537,620.592 L304.942439,587.824 L349.66439,544.629818 L392.89561,499.946182 L434.636098,540.161455 C483.830244,589.313455 483.830244,589.313455 483.830244,616.123636 C483.830244,633.997091 480.84878,642.933818 473.395122,654.849455 C470.413659,659.317818 443.580488,687.617455 412.275122,720.385455 C349.66439,785.921455 346.682927,787.410909 331.77561,788.900364 L318.359024,788.900364 L318.359024,788.900364 Z M510.663415,477.604364 C498.737561,474.625455 495.756098,473.136 446.561951,423.984 L395.877073,374.832 L395.877073,415.047273 L394.386341,456.752 L276.618537,456.752 L160.341463,458.241455 L160.341463,416.536727 C160.341463,392.705455 158.850732,373.342545 158.850732,373.342545 C157.36,373.342545 136.489756,395.684364 111.147317,421.005091 C58.9717073,473.136 55.9902439,476.114909 39.5921951,476.114909 C11.2682927,479.093818 -8.11121951,449.304727 3.81463415,423.984 C5.30536585,419.515636 32.1385366,391.216 88.7863415,334.616727 C179.720976,243.76 179.720976,243.76 200.59122,240.781091 C212.517073,239.291636 340.72,239.291636 354.136585,242.270545 C376.497561,245.249455 375.006829,243.76 465.941463,334.616727 C530.042927,398.663273 547.931707,418.026182 550.913171,423.984 C559.857561,443.346909 552.403902,464.199273 533.02439,473.136 C527.061463,476.114909 515.13561,479.093818 510.663415,477.604364 L510.663415,477.604364 Z M254.257561,221.418182 C225.933659,215.460364 199.100488,197.586909 184.193171,173.755636 C154.378537,129.072 161.832195,68.0043636 200.59122,30.768 C222.952195,11.4050909 246.803902,0.978909091 278.109268,0.978909091 C297.48878,0.978909091 309.414634,3.95781818 327.303415,12.8945455 C367.553171,32.2574545 391.404878,73.9621818 388.423415,117.156364 C386.932683,135.029818 385.441951,146.945455 377.988293,161.84 C358.60878,200.565818 319.849756,224.397091 278.109268,222.907636 C269.164878,222.907636 258.729756,222.907636 254.257561,221.418182 L254.257561,221.418182 Z" id="Shape" sketch:type="MSShapeGroup"></path>
            </g>
            <g id="one-click" sketch:type="MSLayerGroup" transform="translate(430.000000, 341.000000)">
                <path d="M115.083056,280.780534 C90.627907,272.589399 71.9269103,263.228101 51.7873754,248.015993 C18.7009967,219.932101 2.84217094e-14,185.997397 2.84217094e-14,146.211883 C2.84217094e-14,127.489288 1.43853821,116.957828 8.63122924,101.74572 C27.3322259,50.2585836 79.1196013,12.8133936 143.853821,2.28193394 C159.677741,-0.058390431 187.009967,-0.058390431 204.272425,1.11177175 C244.551495,5.7924205 277.637874,19.8343667 306.408638,43.2376104 C332.302326,65.470692 346.687708,87.7037735 355.318937,119.298153 C358.196013,129.829612 356.757475,160.253829 353.880399,171.955451 C342.372093,216.421614 309.285714,252.696642 261.813953,272.589399 L251.744186,278.44021 L250.305648,271.419237 L250.305648,253.866804 L250.305648,242.165182 L257.498339,238.654695 C274.760797,229.293398 293.461794,211.740965 303.531561,194.188532 C313.601329,176.6361 317.916944,161.423991 316.478405,139.19091 C315.039867,108.766693 302.093023,84.193287 273.322259,61.9602054 C253.182724,47.9182592 233.043189,38.5569617 207.149502,33.876313 C189.887043,31.5359886 159.677741,31.5359886 142.415282,35.0464751 C90.627907,46.748097 53.2259136,80.6828004 41.717608,123.978801 C38.8405316,138.020748 38.8405316,159.083667 43.1561462,173.125613 C54.6644518,205.890154 84.8737542,235.144209 122.275748,248.015993 L132.345515,251.52648 L132.345515,267.90875 C132.345515,280.780534 130.906977,284.291021 129.468439,284.291021 C129.468439,284.291021 122.275748,283.120859 115.083056,280.780534 L115.083056,280.780534 Z" id="Shape" fill-opacity="0.210003397" fill="#FA3F3F" filter="url(#filter-2)" sketch:type="MSShapeGroup"></path>
                <path d="M275.760797,596.724324 C249.86711,592.043676 232.604651,585.022702 215.342193,570.980756 C208.149502,565.129945 199.518272,556.93881 198.079734,553.428323 C195.202658,549.917837 185.13289,538.216215 177.940199,530.02508 C169.30897,520.663782 146.292359,493.750052 127.591362,470.346808 C62.8571429,391.945942 42.717608,367.372536 24.0166113,350.990265 C-1.87707641,328.757184 -3.31561462,320.566048 12.5083056,314.715238 C22.5780731,311.204751 45.5946844,311.204751 61.4186047,314.715238 C81.5581395,319.395886 87.3122924,322.906373 113.20598,346.309617 C127.591362,358.011238 141.976744,370.883022 146.292359,375.563671 L154.923588,383.754807 L156.362126,257.37729 C156.362126,136.850585 156.362126,130.999774 159.239203,127.489288 C164.993355,116.957828 172.186047,113.447342 183.694352,113.447342 C199.518272,113.447342 212.465116,120.468315 218.219269,130.999774 L222.534884,138.020748 L223.973422,177.806262 C223.973422,200.039343 225.41196,230.46356 225.41196,244.505506 C226.850498,258.547453 226.850498,280.780534 226.850498,292.482156 C226.850498,305.35394 228.289037,315.8854 228.289037,315.8854 C232.604651,315.8854 373.581395,327.587022 380.774086,327.587022 C393.72093,329.927346 408.106312,336.948319 419.614618,345.139454 C431.122924,353.33059 432.561462,356.841076 434,366.202374 C434,369.71286 429.684385,402.477402 423.930233,438.752429 C418.17608,475.027457 413.860465,508.96216 413.860465,512.472647 C408.106312,551.087999 375.019934,583.85254 327.548173,595.554162 C314.601329,597.894487 288.707641,599.064649 275.760797,596.724324 L275.760797,596.724324 Z" id="bottom-hand" fill="#FFFFFF" sketch:type="MSShapeGroup"></path>
                <path d="M285.760797,583.724324 C259.86711,579.043676 242.604651,572.022702 225.342193,557.980756 C218.149502,552.129945 209.518272,543.93881 208.079734,540.428323 C205.202658,536.917837 195.13289,525.216215 187.940199,517.02508 C179.30897,507.663782 156.292359,480.750052 137.591362,457.346808 C72.8571429,378.945942 52.717608,354.372536 34.0166113,337.990265 C8.12292359,315.757184 6.68438538,307.566048 22.5083056,301.715238 C32.5780731,298.204751 55.5946844,298.204751 71.4186047,301.715238 C91.5581395,306.395886 97.3122924,309.906373 123.20598,333.309617 C137.591362,345.011238 151.976744,357.883022 156.292359,362.563671 L164.923588,370.754807 L166.362126,244.37729 C166.362126,123.850585 166.362126,117.999774 169.239203,114.489288 C174.993355,103.957828 182.186047,100.447342 193.694352,100.447342 C209.518272,100.447342 222.465116,107.468315 228.219269,117.999774 L232.534884,125.020748 L233.973422,164.806262 C233.973422,187.039343 235.41196,217.46356 235.41196,231.505506 C236.850498,245.547453 236.850498,267.780534 236.850498,279.482156 C236.850498,292.35394 238.289037,302.8854 238.289037,302.8854 C242.604651,302.8854 383.581395,314.587022 390.774086,314.587022 C403.72093,316.927346 418.106312,323.948319 429.614618,332.139454 C441.122924,340.33059 442.561462,343.841076 444,353.202374 C444,356.71286 439.684385,389.477402 433.930233,425.752429 C428.17608,462.027457 423.860465,495.96216 423.860465,499.472647 C418.106312,538.087999 385.019934,570.85254 337.548173,582.554162 C324.601329,584.894487 298.707641,586.064649 285.760797,583.724324 L285.760797,583.724324 Z" id="top-hand" fill-opacity="0.5" fill="#FFFFFF" filter="url(#filter-3)" sketch:type="MSShapeGroup"></path>
            </g>
        </g>
    </g>
</svg>